<?xml version="1.0" encoding="utf-8"?>
<!-- Generator: Adobe Illustrator 18.0.0, SVG Export Plug-In . SVG Version: 6.00 Build 0)  -->
<!DOCTYPE svg PUBLIC "-//W3C//DTD SVG 1.1//EN" "http://www.w3.org/Graphics/SVG/1.1/DTD/svg11.dtd">
<svg version="1.1" id="Layer_1" xmlns="http://www.w3.org/2000/svg" xmlns:xlink="http://www.w3.org/1999/xlink" x="0px" y="0px"
	 viewBox="0 0 1526 478" enable-background="new 0 0 1526 478" xml:space="preserve">
<g>
	<g>
		<polygon fill-rule="evenodd" clip-rule="evenodd" fill="#1F7FB9" points="260.2,237.1 187.1,281.9 263.9,328.7 335.3,282.5 		"/>
		<polygon fill-rule="evenodd" clip-rule="evenodd" fill="#1F7FB9" points="114.4,149.1 114.3,240.8 192.9,192.2 		"/>
	</g>
	<path fill-rule="evenodd" clip-rule="evenodd" fill="#3AADF3" d="M335.1,282c-13.1,7.1-145,91.1-145.8,91.6l-74.8-46.7V149.2
		l72.9-44.9v0l74.9,45.2l72.8-46.5L187.4,18.3v50.2l0-50.1L42.8,107.1l0.1,263.3l146.4,89.3v0l145.9-89.9
		C335.1,369.8,334.3,303,335.1,282z"/>
	<polygon fill-rule="evenodd" clip-rule="evenodd" fill="#1796E3" points="334.9,102.1 114.3,239 114.5,326.8 335.1,193.9 	"/>
</g>
<g>
	<path fill="#233254" d="M608.7,251.5c5.6,7.4,8.4,16.5,8.4,27.4c0,14.8-5.5,26.6-16.4,35.3c-10.9,8.7-26,13-45.1,13h-83.8V150.9
		h81.3c18.3,0,32.9,4.1,43.6,12.3c10.8,8.2,16.1,19.3,16.1,33.5c0,9.2-2.5,17.2-7.4,24.1c-4.9,6.9-11.7,12-20.4,15.1
		C595.3,238.9,603.1,244.1,608.7,251.5z M509.8,222.6h36.8c10,0,17.4-1.7,22.1-5.1c4.8-3.4,7.1-8.6,7.1-15.6
		c0-7.3-2.4-12.7-7.1-16.1c-4.8-3.4-12.1-5.1-22.1-5.1h-36.8V222.6z M573.6,292.1c4.7-3.5,7-9.2,7-17c0-7.8-2.3-13.6-7-17.3
		c-4.7-3.7-12.2-5.5-22.5-5.5h-41.3v45h41.3C561.4,297.4,568.9,295.6,573.6,292.1z"/>
	<path fill="#233254" d="M802.1,327.1h-42.5l-30.5-56.3c-2.5-4.3-5.5-7.5-9-9.4c-3.5-1.9-7.9-2.9-13.3-2.9h-19.3v68.5h-38.5V150.9
		h81c20.7,0,36.3,4.5,46.9,13.6c10.6,9.1,15.9,22.2,15.9,39.4c0,13.3-3.7,24.5-11.1,33.5c-7.4,9-17.9,14.9-31.4,17.8
		c9.2,2.3,16.9,8.9,23.3,19.8L802.1,327.1z M748.6,223.3c5-3.9,7.5-10,7.5-18.4c0-8.5-2.5-14.7-7.5-18.5c-5-3.8-13.1-5.8-24.3-5.8
		h-37.3v48.5h37.3C735.5,229.1,743.6,227.2,748.6,223.3z"/>
	<path fill="#233254" d="M963.8,327.1l-16.8-39h-82l-16.8,39h-39.3l81-176.3h31.3l81,176.3H963.8z M877.8,258.6h56.5l-28.3-66
		L877.8,258.6z"/>
	<path fill="#233254" d="M1022.1,327.1V150.9h39v176.3H1022.1z"/>
	<path fill="#233254" d="M1217.6,150.9h36.5v176.3h-29l-87.8-112.3v112.3h-36.3V150.9h28.8l87.8,111.8V150.9z"/>
	<path fill="#233254" d="M1382.8,237.9l67.3,89.3h-45.5l-43.8-60.8l-44,60.8h-45.3l67.3-89.3l-65.5-87h45.3l42.3,58.5l42.5-58.5
		h45.3L1382.8,237.9z"/>
</g>
</svg>
